<svg width="37" height="35" viewBox="0 0 37 35" fill="none" xmlns="http://www.w3.org/2000/svg">
<path d="M1.54169 1.45834H7.70835L11.84 20.9854C11.981 21.6568 12.3671 22.26 12.9308 22.6892C13.4945 23.1184 14.1998 23.3465 14.9234 23.3333H29.9084C30.6319 23.3465 31.3372 23.1184 31.9009 22.6892C32.4646 22.26 32.8507 21.6568 32.9917 20.9854L35.4584 8.75001H9.25002M15.4167 30.625C15.4167 31.4304 14.7265 32.0833 13.875 32.0833C13.0236 32.0833 12.3334 31.4304 12.3334 30.625C12.3334 29.8196 13.0236 29.1667 13.875 29.1667C14.7265 29.1667 15.4167 29.8196 15.4167 30.625ZM32.375 30.625C32.375 31.4304 31.6848 32.0833 30.8334 32.0833C29.9819 32.0833 29.2917 31.4304 29.2917 30.625C29.2917 29.8196 29.9819 29.1667 30.8334 29.1667C31.6848 29.1667 32.375 29.8196 32.375 30.625Z" stroke="white" stroke-width="4" stroke-linecap="round" stroke-linejoin="round"/>
</svg>
